<svg width="307" height="307" viewBox="0 0 307 307" fill="none" xmlns="http://www.w3.org/2000/svg">
<circle cx="153.5" cy="153.5" r="153.5" fill="#ED203D"/>
<g clip-path="url(#clip0_127_2)">
<path fill-rule="evenodd" clip-rule="evenodd" d="M175.835 137.418C176.475 143.818 167.71 155.724 163.911 159.581C156.334 167.261 149.347 175.667 137.701 184.326C129.366 190.52 127.211 191.278 117.186 191.14L116.823 191.122C113.01 191.122 109.2 191.991 105.714 193.732L100.431 188.467C99.727 187.765 98.578 187.765 97.8772 188.467L89.3931 196.916C88.6924 197.621 88.6924 198.767 89.3931 199.469L94.6543 204.709C92.9593 208.063 92.0519 211.757 92.0006 215.512L91.9864 215.881C91.9864 222.213 94.4089 228.553 99.2575 233.382C104.088 238.197 110.438 240.611 116.813 240.622H116.834C120.679 240.622 124.521 239.736 128.029 237.973L133.286 243.217C133.991 243.916 135.14 243.916 135.844 243.217L144.325 234.761C145.029 234.063 145.029 232.921 144.325 232.216L139.042 226.95C140.789 223.476 141.66 219.678 141.66 215.878C141.66 205.376 142.187 203.17 148.846 194.384C157.54 182.9 165.739 176.355 173.302 168.941C177.165 165.155 189.118 157.05 195.535 157.053L175.835 137.418ZM215.253 63.3368C240.279 77.1114 257.805 94.4031 270.661 118.566C271.02 119.229 271.195 119.97 270.661 120.502L264.397 126.746L207.046 69.5806L213.311 63.3368C213.844 62.805 214.595 62.9787 215.253 63.3368ZM219.404 114.428C223.947 118.96 223.947 126.302 219.401 130.834C214.858 135.361 207.491 135.365 202.945 130.834C198.399 126.302 198.399 118.956 202.945 114.428C207.491 109.897 214.858 109.897 219.404 114.428ZM260.299 130.834L256.5 134.617L199.146 77.4553L202.945 73.6686L260.299 130.834ZM252.398 138.705L216.071 174.916C215.548 175.433 214.655 175.433 214.129 174.912L205.435 166.243L207.473 164.208C212.251 159.446 207.541 157.883 202.781 153.135L180.573 131C175.81 126.256 174.22 121.576 169.46 126.32L167.418 128.355L158.717 119.686C158.194 119.162 158.184 118.282 158.717 117.751L195.044 81.5398L252.398 138.705ZM126.417 215.856C126.417 221.061 122.184 225.284 116.958 225.284C111.736 225.284 107.503 221.061 107.503 215.856C107.503 210.648 111.736 206.429 116.958 206.429C122.184 206.429 126.417 210.648 126.417 215.856Z" fill="white"/>
</g>
<g clip-path="url(#clip1_127_2)">
<path fill-rule="evenodd" clip-rule="evenodd" d="M133.165 137.418C132.525 143.818 141.29 155.724 145.089 159.581C152.666 167.261 159.653 175.667 171.299 184.326C179.634 190.52 181.79 191.278 191.814 191.14L192.177 191.122C195.99 191.122 199.8 191.991 203.286 193.732L208.569 188.467C209.273 187.765 210.422 187.765 211.123 188.467L219.607 196.916C220.308 197.621 220.308 198.767 219.607 199.469L214.346 204.709C216.041 208.063 216.948 211.757 216.999 215.512L217.014 215.881C217.014 222.213 214.591 228.553 209.743 233.382C204.912 238.197 198.562 240.611 192.188 240.622H192.166C188.321 240.622 184.479 239.736 180.971 237.973L175.714 243.217C175.009 243.916 173.86 243.916 173.156 243.217L164.676 234.761C163.971 234.063 163.971 232.921 164.676 232.216L169.958 226.95C168.211 223.476 167.34 219.678 167.34 215.878C167.34 205.376 166.813 203.17 160.154 194.384C151.46 182.9 143.261 176.355 135.698 168.941C131.835 165.155 119.882 157.05 113.465 157.053L133.165 137.418ZM93.747 63.3368C68.7216 77.1114 51.1949 94.4031 38.339 118.566C37.9797 119.229 37.8054 119.97 38.339 120.502L44.6033 126.746L101.954 69.5806L95.6893 63.3368C95.1557 62.805 94.4051 62.9787 93.747 63.3368ZM89.5957 114.428C85.0531 118.96 85.0531 126.302 89.5993 130.834C94.1419 135.361 101.509 135.365 106.055 130.834C110.601 126.302 110.601 118.956 106.055 114.428C101.509 109.897 94.1419 109.897 89.5957 114.428ZM48.7013 130.834L52.5005 134.617L109.854 77.4553L106.055 73.6686L48.7013 130.834ZM56.602 138.705L92.9289 174.916C93.4518 175.433 94.3447 175.433 94.8712 174.912L103.565 166.243L101.527 164.208C96.7494 159.446 101.459 157.883 106.219 153.135L128.427 131C133.19 126.256 134.78 121.576 139.54 126.32L141.582 128.355L150.283 119.686C150.806 119.162 150.816 118.282 150.283 117.751L113.956 81.5398L56.602 138.705ZM182.583 215.856C182.583 221.061 186.816 225.284 192.042 225.284C197.264 225.284 201.497 221.061 201.497 215.856C201.497 210.648 197.264 206.429 192.042 206.429C186.816 206.429 182.583 210.648 182.583 215.856Z" fill="white"/>
</g>
<defs>
<clipPath id="clip0_127_2">
<rect width="182.132" height="180.742" fill="white" transform="translate(88.8676 63)"/>
</clipPath>
<clipPath id="clip1_127_2">
<rect width="182.132" height="180.742" fill="white" transform="matrix(-1 0 0 1 220.133 63)"/>
</clipPath>
</defs>
</svg>
