<svg width="324" height="324" viewBox="0 0 324 324" fill="none" xmlns="http://www.w3.org/2000/svg">
<rect width="324" height="324" fill="#0F1115"/>
<circle cx="162.5" cy="162.5" r="153.5" fill="#ED203D"/>
<path d="M95.975 237.9C82.105 237.9 72.13 234.955 66.05 229.065C60.0333 223.175 57.025 213.453 57.025 199.9C57.025 198.887 57.025 197.81 57.025 196.67C57.025 195.53 57.025 194.358 57.025 193.155C57.0883 191.952 57.1517 190.717 57.215 189.45H85.525C85.4617 191.92 85.3983 194.358 85.335 196.765C85.2717 199.172 85.335 201.99 85.525 205.22C85.715 208.07 86.475 210.382 87.805 212.155C89.1983 213.865 91.795 214.72 95.595 214.72C99.205 214.72 101.833 213.897 103.48 212.25C105.127 210.603 106.045 208.26 106.235 205.22C106.425 200.66 106.615 195.277 106.805 189.07C106.995 182.8 107.122 176.023 107.185 168.74H103.005C101.612 171.843 99.3317 174.472 96.165 176.625C92.9983 178.715 88.8817 179.76 83.815 179.76C78.8117 179.76 74.03 178.62 69.47 176.34C64.9733 173.997 61.3 170.292 58.45 165.225C55.6 160.158 54.175 153.54 54.175 145.37C54.175 143.153 54.175 141.032 54.175 139.005C54.175 136.978 54.175 134.983 54.175 133.02C54.175 130.993 54.175 128.935 54.175 126.845C54.2383 124.755 54.3017 122.57 54.365 120.29C54.6817 106.61 58.0067 96.825 64.34 90.935C70.7367 85.045 80.9017 82.1 94.835 82.1C109.022 82.1 119.155 85.045 125.235 90.935C131.315 96.825 134.482 106.61 134.735 120.29C134.925 130.487 135.052 139.987 135.115 148.79C135.178 157.53 135.178 166.048 135.115 174.345C135.052 182.642 134.925 191.16 134.735 199.9C134.482 213.453 131.252 223.175 125.045 229.065C118.902 234.955 109.212 237.9 95.975 237.9ZM95.405 156.2C99.015 156.2 101.77 155.472 103.67 154.015C105.633 152.558 106.805 150.5 107.185 147.84C107.122 142.52 106.995 137.105 106.805 131.595C106.615 126.085 106.425 120.543 106.235 114.97C106.172 111.803 105.127 109.397 103.1 107.75C101.073 106.103 98.255 105.28 94.645 105.28C90.9717 105.28 88.09 106.103 86 107.75C83.91 109.397 82.865 111.803 82.865 114.97C82.865 117.757 82.8333 120.385 82.77 122.855C82.77 125.325 82.7383 127.795 82.675 130.265C82.675 132.672 82.6433 135.205 82.58 137.865C82.58 140.462 82.6117 143.343 82.675 146.51C82.8017 149.613 84.0683 152.02 86.475 153.73C88.945 155.377 91.9217 156.2 95.405 156.2ZM151.174 236V109.08H141.484L140.914 99.01L157.254 84H179.674V236H151.174ZM205.308 236V109.08H180.893V84H258.223V109.08H233.808V236H205.308Z" fill="#F5F5F5"/>
</svg>
