<svg width="1704" height="457" viewBox="0 0 1704 457" fill="none" xmlns="http://www.w3.org/2000/svg">
<circle cx="207" cy="229" r="207" fill="#ED203D"/>
<g clip-path="url(#clip0_191_2)">
<path fill-rule="evenodd" clip-rule="evenodd" d="M237.122 207.323C237.985 215.953 226.165 232.009 221.042 237.211C210.824 247.567 201.402 258.904 185.697 270.58C174.457 278.932 171.55 279.956 158.032 279.769L157.542 279.745C152.4 279.745 147.262 280.917 142.561 283.264L135.437 276.164C134.487 275.217 132.938 275.217 131.993 276.164L120.552 287.558C119.607 288.509 119.607 290.054 120.552 291.001L127.647 298.067C125.361 302.59 124.137 307.572 124.068 312.636L124.049 313.133C124.049 321.673 127.316 330.222 133.854 336.734C140.369 343.227 148.932 346.483 157.528 346.497H157.557C162.742 346.497 167.923 345.302 172.653 342.926L179.743 349.997C180.693 350.939 182.243 350.939 183.192 349.997L194.629 338.594C195.579 337.652 195.579 336.112 194.629 335.161L187.505 328.06C189.86 323.375 191.036 318.254 191.036 313.128C191.036 298.966 191.746 295.992 200.726 284.144C212.45 268.657 223.507 259.831 233.706 249.833C238.916 244.727 255.034 233.797 263.688 233.802L237.122 207.323ZM290.278 107.422C324.026 125.997 347.661 149.316 364.998 181.901C365.482 182.795 365.718 183.794 364.998 184.511L356.55 192.931L279.211 115.842L287.659 107.422C288.379 106.705 289.391 106.939 290.278 107.422ZM295.876 176.321C302.002 182.431 302.002 192.333 295.872 198.444C289.746 204.55 279.811 204.554 273.68 198.444C267.55 192.333 267.55 182.426 273.68 176.321C279.811 170.21 289.746 170.21 295.876 176.321ZM351.024 198.444L345.901 203.546L268.557 126.461L273.68 121.355L351.024 198.444ZM340.37 209.058L291.382 257.89C290.676 258.588 289.472 258.588 288.762 257.885L277.038 246.195L279.787 243.45C286.23 237.029 279.878 234.921 273.46 228.518L243.511 198.669C237.088 192.271 234.944 185.96 228.525 192.357L225.772 195.102L214.038 183.411C213.333 182.704 213.318 181.518 214.038 180.801L263.026 131.969L340.37 209.058ZM170.48 313.1C170.48 320.119 164.772 325.813 157.725 325.813C150.682 325.813 144.974 320.119 144.974 313.1C144.974 306.076 150.682 300.386 157.725 300.386C164.772 300.386 170.48 306.076 170.48 313.1Z" fill="white"/>
</g>
<g clip-path="url(#clip1_191_2)">
<path fill-rule="evenodd" clip-rule="evenodd" d="M179.58 207.323C178.716 215.953 190.536 232.009 195.66 237.211C205.878 247.567 215.299 258.904 231.005 270.58C242.244 278.932 245.151 279.956 258.67 279.769L259.159 279.745C264.302 279.745 269.439 280.917 274.14 283.264L281.264 276.164C282.214 275.217 283.763 275.217 284.708 276.164L296.15 287.558C297.095 288.509 297.095 290.054 296.15 291.001L289.055 298.067C291.34 302.59 292.564 307.572 292.633 312.636L292.652 313.133C292.652 321.673 289.386 330.222 282.847 336.734C276.333 343.227 267.77 346.483 259.173 346.497H259.145C253.959 346.497 248.778 345.302 244.048 342.926L236.958 349.997C236.008 350.939 234.459 350.939 233.509 349.997L222.073 338.594C221.123 337.652 221.123 336.112 222.073 335.161L229.196 328.06C226.841 323.375 225.666 318.254 225.666 313.128C225.666 298.966 224.956 295.992 215.975 284.144C204.251 268.657 193.194 259.831 182.995 249.833C177.786 244.727 161.667 233.797 153.013 233.802L179.58 207.323ZM126.423 107.422C92.6754 125.997 69.0401 149.316 51.7034 181.901C51.2189 182.795 50.9838 183.794 51.7034 184.511L60.1511 192.931L137.49 115.842L129.042 107.422C128.323 106.705 127.311 106.939 126.423 107.422ZM120.825 176.321C114.699 182.431 114.699 192.333 120.83 198.444C126.956 204.55 136.89 204.554 143.021 198.444C149.152 192.333 149.152 182.426 143.021 176.321C136.89 170.21 126.956 170.21 120.825 176.321ZM65.6773 198.444L70.8006 203.546L148.144 126.461L143.021 121.355L65.6773 198.444ZM76.3317 209.058L125.32 257.89C126.025 258.588 127.229 258.588 127.939 257.885L139.663 246.195L136.914 243.45C130.472 237.029 136.823 234.921 143.242 228.518L173.19 198.669C179.613 192.271 181.758 185.96 188.176 192.357L190.93 195.102L202.663 183.411C203.369 182.704 203.383 181.518 202.663 180.801L153.675 131.969L76.3317 209.058ZM246.221 313.1C246.221 320.119 251.93 325.813 258.977 325.813C266.019 325.813 271.727 320.119 271.727 313.1C271.727 306.076 266.019 300.386 258.977 300.386C251.93 300.386 246.221 306.076 246.221 313.1Z" fill="white"/>
</g>
<path d="M570.317 380.515C541.497 380.515 520.754 374.587 508.088 362.732C495.552 350.877 489.155 331.182 488.896 303.647C488.767 286.183 488.638 268.909 488.509 251.828C488.509 234.619 488.509 218.62 488.509 203.834C488.509 189.046 488.509 176.363 488.509 165.782C488.638 155.202 488.767 147.744 488.896 143.41C490.06 117.405 497.685 98.1563 511.772 85.6637C525.988 73.1712 545.374 66.9248 569.929 66.9248C595.518 66.9248 615.227 73.4261 629.056 86.4286C643.014 99.3035 650.445 118.298 651.35 143.41C651.35 145.45 651.35 147.617 651.35 149.911C651.35 152.206 651.285 154.564 651.156 156.986C651.156 159.408 651.091 161.894 650.962 164.444H593.192C593.451 161.129 593.58 158.134 593.58 155.457C593.709 152.78 593.709 149.72 593.58 146.278C593.58 142.837 593.451 138.311 593.192 132.702C593.063 126.966 591.189 122.377 587.57 118.935C584.081 115.365 578.459 113.581 570.705 113.581C563.338 113.581 557.587 115.238 553.451 118.552C549.445 121.867 547.312 126.583 547.054 132.702C546.666 142.645 546.343 153.863 546.085 166.356C545.955 178.721 545.891 191.978 545.891 206.128H555.971C559.331 199.755 564.695 194.464 572.062 190.257C579.557 186.051 588.41 183.947 598.62 183.947C619.428 183.947 633.644 189.046 641.269 199.244C648.894 209.316 652.9 226.142 653.288 249.725C653.417 256.608 653.482 263.238 653.482 269.611C653.611 275.858 653.611 281.849 653.482 287.585C653.353 293.193 653.159 298.547 652.9 303.647C651.608 331.182 644.629 350.877 631.964 362.732C619.428 374.587 598.879 380.515 570.317 380.515ZM570.705 333.859C578.33 333.859 584.21 332.201 588.346 328.887C592.481 325.445 594.614 320.602 594.743 314.355C595.001 308.364 595.131 302.5 595.131 296.763C595.26 291.027 595.325 285.482 595.325 280.128C595.325 274.646 595.325 269.483 595.325 264.639C595.325 259.796 595.26 255.207 595.131 250.872C595.001 244.499 592.804 239.654 588.54 236.34C584.404 233.026 578.717 231.368 571.48 231.368C563.596 231.368 557.393 233.026 552.87 236.34C548.475 239.654 546.149 244.371 545.891 250.49C546.149 260.561 546.278 270.949 546.278 281.657C546.408 292.365 546.666 303.265 547.054 314.355C547.312 320.602 549.445 325.445 553.451 328.887C557.587 332.201 563.338 333.859 570.705 333.859Z" fill="#F5F5F5"/>
<path d="M658.347 376.69V70.7491H733.175C762.126 70.7491 782.997 76.5491 795.791 88.1495C808.716 99.6223 815.631 118.68 816.534 145.322C816.922 156.03 817.116 165.973 817.116 175.152C817.116 184.33 816.922 194.273 816.534 204.981C815.631 231.496 808.716 250.553 795.791 262.154C782.997 273.755 762.126 279.554 733.175 279.554H716.503V376.69H658.347ZM716.503 229.074H733.175C741.317 229.074 747.457 227.225 751.592 223.529C755.729 219.832 757.989 214.67 758.377 208.04C758.764 201.793 759.024 194.783 759.152 187.007C759.282 179.103 759.282 171.264 759.152 163.488C759.024 155.584 758.764 148.509 758.377 142.263C757.989 135.507 755.729 130.344 751.592 126.775C747.457 123.078 741.317 121.229 733.175 121.229H716.503V229.074ZM817.583 376.69V70.7491H875.741V376.69H817.583ZM960.251 380.515C931.818 380.515 911.527 374.587 899.38 362.732C887.36 350.877 880.769 331.182 879.606 303.647C879.476 299.568 879.412 295.105 879.412 290.262C879.412 285.29 879.54 280.382 879.8 275.539C880.058 270.567 880.509 266.041 881.157 261.962H935.825C935.307 271.269 934.984 280.447 934.856 289.497C934.726 298.547 935.05 306.834 935.825 314.355C936.471 320.602 938.733 325.445 942.61 328.887C946.615 332.201 952.497 333.859 960.251 333.859C967.876 333.859 973.433 332.201 976.923 328.887C980.54 325.445 982.739 320.602 983.514 314.355C984.03 310.02 984.353 305.75 984.483 301.544C984.741 297.209 984.741 292.939 984.483 288.732C984.353 284.398 984.03 280.065 983.514 275.73C982.996 270.376 981.316 265.532 978.474 261.198C975.63 256.863 971.107 253.931 964.904 252.402L933.111 244.371C919.669 240.929 909.007 236.021 901.124 229.647C893.24 223.146 887.488 215.115 883.871 205.555C880.381 195.994 878.443 184.84 878.055 172.092C877.925 166.483 877.861 161.512 877.861 157.178C877.861 152.716 877.925 148.127 878.055 143.41C878.831 125.181 881.932 110.458 887.36 99.2399C892.916 88.022 901.576 79.8636 913.337 74.7645C925.097 69.5381 940.735 66.9248 960.251 66.9248C987.779 66.9248 1007.75 72.8524 1020.15 84.7076C1032.56 96.4353 1039.35 116.003 1040.51 143.41C1040.77 148.892 1040.77 155.584 1040.51 163.488C1040.38 171.391 1040.12 178.721 1039.73 185.477H983.902C984.29 176.681 984.547 167.885 984.677 159.09C984.805 150.294 984.677 141.498 984.289 132.702C984.16 126.583 981.897 121.867 977.504 118.552C973.24 115.238 967.488 113.581 960.251 113.581C952.497 113.581 946.745 115.238 942.998 118.552C939.248 121.867 936.988 126.583 936.213 132.702C935.437 139.203 935.049 145.768 935.049 152.397C935.049 159.026 935.437 165.591 936.213 172.092C936.858 177.191 938.667 181.844 941.641 186.051C944.613 190.257 949.395 193.126 955.986 194.655L983.514 201.157C997.988 204.598 1009.36 209.698 1017.63 216.454C1026.03 223.083 1032.04 231.368 1035.66 241.311C1039.41 251.126 1041.54 262.599 1042.06 275.73C1042.19 278.661 1042.25 281.721 1042.25 284.908C1042.25 288.096 1042.19 291.281 1042.06 294.469C1041.93 297.656 1041.8 300.716 1041.67 303.647C1040.51 331.182 1033.79 350.877 1021.51 362.732C1009.36 374.587 988.942 380.515 960.251 380.515ZM1080.69 376.69V121.229H1030.87V70.7491H1188.67V121.229H1138.84V376.69H1080.69ZM1259.7 380.515C1231.26 380.515 1210.65 374.587 1197.86 362.732C1185.19 350.877 1178.54 331.182 1177.89 303.647C1177.63 291.155 1177.44 278.152 1177.31 264.639C1177.18 251.126 1177.11 237.424 1177.11 223.529C1177.11 209.633 1177.18 195.931 1177.31 182.418C1177.44 168.905 1177.63 155.903 1177.89 143.41C1178.54 116.003 1185.19 96.4353 1197.86 84.7076C1210.65 72.8524 1231.26 66.9248 1259.7 66.9248C1288.26 66.9248 1308.74 72.8524 1321.15 84.7076C1333.56 96.4353 1340.21 116.003 1341.12 143.41C1341.64 156.158 1342.02 169.288 1342.28 182.8C1342.54 196.313 1342.67 210.016 1342.67 223.911C1342.67 237.678 1342.54 251.318 1342.28 264.831C1342.02 278.216 1341.64 291.155 1341.12 303.647C1340.21 331.182 1333.56 350.877 1321.15 362.732C1308.74 374.587 1288.26 380.515 1259.7 380.515ZM1259.7 333.859C1267.32 333.859 1273.07 332.201 1276.95 328.887C1280.83 325.445 1282.83 320.602 1282.96 314.355C1283.61 301.352 1284.06 287.074 1284.32 271.523C1284.58 255.972 1284.71 239.973 1284.71 223.529C1284.71 207.084 1284.58 191.086 1284.32 175.534C1284.06 159.982 1283.61 145.705 1282.96 132.702C1282.83 126.583 1280.76 121.867 1276.76 118.552C1272.75 115.238 1267.06 113.581 1259.7 113.581C1252.33 113.581 1246.58 115.238 1242.44 118.552C1238.44 121.867 1236.31 126.583 1236.05 132.702C1235.53 145.705 1235.08 159.982 1234.69 175.534C1234.43 191.086 1234.3 207.084 1234.3 223.529C1234.3 239.973 1234.43 255.972 1234.69 271.523C1235.08 287.074 1235.53 301.352 1236.05 314.355C1236.31 320.602 1238.44 325.445 1242.44 328.887C1246.58 332.201 1252.33 333.859 1259.7 333.859ZM1348.13 376.69V70.7491H1432.27L1455.53 168.268L1476.86 326.21H1486.94L1476.08 201.921L1471.43 70.7491H1527.65V376.69H1439.25L1415.98 276.495L1400.09 120.847H1389.23L1399.31 259.285L1404.35 376.69H1348.13ZM1611.96 380.515C1583.53 380.515 1563.24 374.587 1551.09 362.732C1539.07 350.877 1532.48 331.182 1531.32 303.647C1531.19 299.568 1531.12 295.105 1531.12 290.262C1531.12 285.29 1531.25 280.382 1531.51 275.539C1531.77 270.567 1532.22 266.041 1532.87 261.962H1587.54C1587.02 271.269 1586.7 280.447 1586.57 289.497C1586.44 298.547 1586.76 306.834 1587.54 314.355C1588.18 320.602 1590.44 325.445 1594.32 328.887C1598.33 332.201 1604.21 333.859 1611.96 333.859C1619.59 333.859 1625.14 332.201 1628.63 328.887C1632.25 325.445 1634.45 320.602 1635.22 314.355C1635.74 310.02 1636.07 305.75 1636.19 301.544C1636.45 297.209 1636.45 292.939 1636.19 288.732C1636.07 284.398 1635.74 280.065 1635.22 275.73C1634.71 270.376 1633.03 265.532 1630.18 261.198C1627.34 256.863 1622.82 253.931 1616.61 252.402L1584.82 244.371C1571.38 240.929 1560.72 236.021 1552.84 229.647C1544.95 223.146 1539.2 215.115 1535.58 205.555C1532.09 195.994 1530.15 184.84 1529.77 172.092C1529.64 166.483 1529.57 161.512 1529.57 157.178C1529.57 152.716 1529.64 148.127 1529.77 143.41C1530.54 125.181 1533.64 110.458 1539.07 99.2399C1544.63 88.022 1553.29 79.8636 1565.05 74.7645C1576.81 69.5381 1592.45 66.9248 1611.96 66.9248C1639.49 66.9248 1659.46 72.8524 1671.86 84.7076C1684.27 96.4353 1691.06 116.003 1692.22 143.41C1692.48 148.892 1692.48 155.584 1692.22 163.488C1692.09 171.391 1691.83 178.721 1691.44 185.477H1635.61C1636 176.681 1636.26 167.885 1636.39 159.09C1636.52 150.294 1636.39 141.498 1636 132.702C1635.87 126.583 1633.61 121.867 1629.22 118.552C1624.95 115.238 1619.2 113.581 1611.96 113.581C1604.21 113.581 1598.46 115.238 1594.71 118.552C1590.96 121.867 1588.7 126.583 1587.92 132.702C1587.15 139.203 1586.76 145.768 1586.76 152.397C1586.76 159.026 1587.15 165.591 1587.92 172.092C1588.57 177.191 1590.38 181.844 1593.35 186.051C1596.33 190.257 1601.11 193.126 1607.7 194.655L1635.22 201.157C1649.7 204.598 1661.07 209.698 1669.34 216.454C1677.75 223.083 1683.76 231.368 1687.37 241.311C1691.12 251.126 1693.25 262.599 1693.77 275.73C1693.9 278.661 1693.96 281.721 1693.96 284.908C1693.96 288.096 1693.9 291.281 1693.77 294.469C1693.64 297.656 1693.51 300.716 1693.38 303.647C1692.22 331.182 1685.5 350.877 1673.22 362.732C1661.07 374.587 1640.65 380.515 1611.96 380.515Z" fill="#ED203D"/>
<defs>
<clipPath id="clip0_191_2">
<rect width="245.612" height="243.737" fill="white" transform="translate(119.843 106.968)"/>
</clipPath>
<clipPath id="clip1_191_2">
<rect width="245.612" height="243.737" fill="white" transform="matrix(-1 0 0 1 296.858 106.968)"/>
</clipPath>
</defs>
</svg>
